<svg xmlns="http://www.w3.org/2000/svg" viewBox="0 0 410 410" shape-rendering="crispEdges">
  <rect width="410" height="410" fill="white"/>
  <g fill="black">
    <rect x="40" y="40" width="10" height="10"/><rect x="50" y="40" width="10" height="10"/><rect x="60" y="40" width="10" height="10"/><rect x="70" y="40" width="10" height="10"/><rect x="80" y="40" width="10" height="10"/><rect x="90" y="40" width="10" height="10"/><rect x="100" y="40" width="10" height="10"/><rect x="110" y="40" width="10" height="10"/><rect x="150" y="40" width="10" height="10"/><rect x="160" y="40" width="10" height="10"/><rect x="180" y="40" width="10" height="10"/><rect x="190" y="40" width="10" height="10"/><rect x="200" y="40" width="10" height="10"/><rect x="210" y="40" width="10" height="10"/><rect x="230" y="40" width="10" height="10"/><rect x="240" y="40" width="10" height="10"/><rect x="250" y="40" width="10" height="10"/><rect x="270" y="40" width="10" height="10"/><rect x="290" y="40" width="10" height="10"/><rect x="300" y="40" width="10" height="10"/><rect x="310" y="40" width="10" height="10"/><rect x="320" y="40" width="10" height="10"/><rect x="330" y="40" width="10" height="10"/><rect x="340" y="40" width="10" height="10"/><rect x="350" y="40" width="10" height="10"/><rect x="360" y="40" width="10" height="10"/><rect x="40" y="50" width="10" height="10"/><rect x="110" y="50" width="10" height="10"/><rect x="130" y="50" width="10" height="10"/><rect x="150" y="50" width="10" height="10"/><rect x="160" y="50" width="10" height="10"/><rect x="190" y="50" width="10" height="10"/><rect x="200" y="50" width="10" height="10"/><rect x="210" y="50" width="10" height="10"/><rect x="220" y="50" width="10" height="10"/><rect x="290" y="50" width="10" height="10"/><rect x="360" y="50" width="10" height="10"/><rect x="40" y="60" width="10" height="10"/><rect x="60" y="60" width="10" height="10"/><rect x="70" y="60" width="10" height="10"/><rect x="80" y="60" width="10" height="10"/><rect x="90" y="60" width="10" height="10"/><rect x="110" y="60" width="10" height="10"/><rect x="180" y="60" width="10" height="10"/><rect x="190" y="60" width="10" height="10"/><rect x="210" y="60" width="10" height="10"/><rect x="240" y="60" width="10" height="10"/><rect x="250" y="60" width="10" height="10"/><rect x="260" y="60" width="10" height="10"/><rect x="290" y="60" width="10" height="10"/><rect x="310" y="60" width="10" height="10"/><rect x="320" y="60" width="10" height="10"/><rect x="330" y="60" width="10" height="10"/><rect x="340" y="60" width="10" height="10"/><rect x="360" y="60" width="10" height="10"/><rect x="40" y="70" width="10" height="10"/><rect x="60" y="70" width="10" height="10"/><rect x="70" y="70" width="10" height="10"/><rect x="80" y="70" width="10" height="10"/><rect x="90" y="70" width="10" height="10"/><rect x="110" y="70" width="10" height="10"/><rect x="130" y="70" width="10" height="10"/><rect x="140" y="70" width="10" height="10"/><rect x="150" y="70" width="10" height="10"/><rect x="160" y="70" width="10" height="10"/><rect x="180" y="70" width="10" height="10"/><rect x="200" y="70" width="10" height="10"/><rect x="210" y="70" width="10" height="10"/><rect x="260" y="70" width="10" height="10"/><rect x="290" y="70" width="10" height="10"/><rect x="310" y="70" width="10" height="10"/><rect x="320" y="70" width="10" height="10"/><rect x="330" y="70" width="10" height="10"/><rect x="340" y="70" width="10" height="10"/><rect x="360" y="70" width="10" height="10"/><rect x="40" y="80" width="10" height="10"/><rect x="60" y="80" width="10" height="10"/><rect x="70" y="80" width="10" height="10"/><rect x="80" y="80" width="10" height="10"/><rect x="90" y="80" width="10" height="10"/><rect x="110" y="80" width="10" height="10"/><rect x="130" y="80" width="10" height="10"/><rect x="140" y="80" width="10" height="10"/><rect x="150" y="80" width="10" height="10"/><rect x="160" y="80" width="10" height="10"/><rect x="180" y="80" width="10" height="10"/><rect x="200" y="80" width="10" height="10"/><rect x="210" y="80" width="10" height="10"/><rect x="220" y="80" width="10" height="10"/><rect x="260" y="80" width="10" height="10"/><rect x="270" y="80" width="10" height="10"/><rect x="290" y="80" width="10" height="10"/><rect x="310" y="80" width="10" height="10"/><rect x="320" y="80" width="10" height="10"/><rect x="330" y="80" width="10" height="10"/><rect x="340" y="80" width="10" height="10"/><rect x="360" y="80" width="10" height="10"/><rect x="40" y="90" width="10" height="10"/><rect x="60" y="90" width="10" height="10"/><rect x="70" y="90" width="10" height="10"/><rect x="80" y="90" width="10" height="10"/><rect x="90" y="90" width="10" height="10"/><rect x="110" y="90" width="10" height="10"/><rect x="140" y="90" width="10" height="10"/><rect x="210" y="90" width="10" height="10"/><rect x="220" y="90" width="10" height="10"/><rect x="260" y="90" width="10" height="10"/><rect x="270" y="90" width="10" height="10"/><rect x="290" y="90" width="10" height="10"/><rect x="310" y="90" width="10" height="10"/><rect x="320" y="90" width="10" height="10"/><rect x="330" y="90" width="10" height="10"/><rect x="340" y="90" width="10" height="10"/><rect x="360" y="90" width="10" height="10"/><rect x="40" y="100" width="10" height="10"/><rect x="110" y="100" width="10" height="10"/><rect x="130" y="100" width="10" height="10"/><rect x="140" y="100" width="10" height="10"/><rect x="170" y="100" width="10" height="10"/><rect x="180" y="100" width="10" height="10"/><rect x="240" y="100" width="10" height="10"/><rect x="250" y="100" width="10" height="10"/><rect x="290" y="100" width="10" height="10"/><rect x="360" y="100" width="10" height="10"/><rect x="40" y="110" width="10" height="10"/><rect x="50" y="110" width="10" height="10"/><rect x="60" y="110" width="10" height="10"/><rect x="70" y="110" width="10" height="10"/><rect x="80" y="110" width="10" height="10"/><rect x="90" y="110" width="10" height="10"/><rect x="100" y="110" width="10" height="10"/><rect x="110" y="110" width="10" height="10"/><rect x="130" y="110" width="10" height="10"/><rect x="150" y="110" width="10" height="10"/><rect x="160" y="110" width="10" height="10"/><rect x="180" y="110" width="10" height="10"/><rect x="200" y="110" width="10" height="10"/><rect x="220" y="110" width="10" height="10"/><rect x="240" y="110" width="10" height="10"/><rect x="250" y="110" width="10" height="10"/><rect x="270" y="110" width="10" height="10"/><rect x="290" y="110" width="10" height="10"/><rect x="300" y="110" width="10" height="10"/><rect x="310" y="110" width="10" height="10"/><rect x="320" y="110" width="10" height="10"/><rect x="330" y="110" width="10" height="10"/><rect x="340" y="110" width="10" height="10"/><rect x="350" y="110" width="10" height="10"/><rect x="360" y="110" width="10" height="10"/><rect x="140" y="120" width="10" height="10"/><rect x="150" y="120" width="10" height="10"/><rect x="160" y="120" width="10" height="10"/><rect x="170" y="120" width="10" height="10"/><rect x="200" y="120" width="10" height="10"/><rect x="220" y="120" width="10" height="10"/><rect x="240" y="120" width="10" height="10"/><rect x="250" y="120" width="10" height="10"/><rect x="270" y="120" width="10" height="10"/><rect x="40" y="130" width="10" height="10"/><rect x="50" y="130" width="10" height="10"/><rect x="60" y="130" width="10" height="10"/><rect x="70" y="130" width="10" height="10"/><rect x="80" y="130" width="10" height="10"/><rect x="90" y="130" width="10" height="10"/><rect x="110" y="130" width="10" height="10"/><rect x="120" y="130" width="10" height="10"/><rect x="130" y="130" width="10" height="10"/><rect x="140" y="130" width="10" height="10"/><rect x="170" y="130" width="10" height="10"/><rect x="270" y="130" width="10" height="10"/><rect x="280" y="130" width="10" height="10"/><rect x="300" y="130" width="10" height="10"/><rect x="320" y="130" width="10" height="10"/><rect x="330" y="130" width="10" height="10"/><rect x="350" y="130" width="10" height="10"/><rect x="40" y="140" width="10" height="10"/><rect x="50" y="140" width="10" height="10"/><rect x="60" y="140" width="10" height="10"/><rect x="90" y="140" width="10" height="10"/><rect x="120" y="140" width="10" height="10"/><rect x="150" y="140" width="10" height="10"/><rect x="160" y="140" width="10" height="10"/><rect x="180" y="140" width="10" height="10"/><rect x="190" y="140" width="10" height="10"/><rect x="200" y="140" width="10" height="10"/><rect x="210" y="140" width="10" height="10"/><rect x="270" y="140" width="10" height="10"/><rect x="280" y="140" width="10" height="10"/><rect x="300" y="140" width="10" height="10"/><rect x="310" y="140" width="10" height="10"/><rect x="340" y="140" width="10" height="10"/><rect x="50" y="150" width="10" height="10"/><rect x="70" y="150" width="10" height="10"/><rect x="80" y="150" width="10" height="10"/><rect x="100" y="150" width="10" height="10"/><rect x="110" y="150" width="10" height="10"/><rect x="120" y="150" width="10" height="10"/><rect x="130" y="150" width="10" height="10"/><rect x="150" y="150" width="10" height="10"/><rect x="160" y="150" width="10" height="10"/><rect x="190" y="150" width="10" height="10"/><rect x="200" y="150" width="10" height="10"/><rect x="210" y="150" width="10" height="10"/><rect x="220" y="150" width="10" height="10"/><rect x="240" y="150" width="10" height="10"/><rect x="250" y="150" width="10" height="10"/><rect x="280" y="150" width="10" height="10"/><rect x="320" y="150" width="10" height="10"/><rect x="330" y="150" width="10" height="10"/><rect x="50" y="160" width="10" height="10"/><rect x="70" y="160" width="10" height="10"/><rect x="80" y="160" width="10" height="10"/><rect x="90" y="160" width="10" height="10"/><rect x="100" y="160" width="10" height="10"/><rect x="110" y="160" width="10" height="10"/><rect x="120" y="160" width="10" height="10"/><rect x="130" y="160" width="10" height="10"/><rect x="150" y="160" width="10" height="10"/><rect x="160" y="160" width="10" height="10"/><rect x="180" y="160" width="10" height="10"/><rect x="190" y="160" width="10" height="10"/><rect x="200" y="160" width="10" height="10"/><rect x="210" y="160" width="10" height="10"/><rect x="220" y="160" width="10" height="10"/><rect x="240" y="160" width="10" height="10"/><rect x="250" y="160" width="10" height="10"/><rect x="270" y="160" width="10" height="10"/><rect x="280" y="160" width="10" height="10"/><rect x="290" y="160" width="10" height="10"/><rect x="310" y="160" width="10" height="10"/><rect x="320" y="160" width="10" height="10"/><rect x="330" y="160" width="10" height="10"/><rect x="50" y="170" width="10" height="10"/><rect x="70" y="170" width="10" height="10"/><rect x="80" y="170" width="10" height="10"/><rect x="90" y="170" width="10" height="10"/><rect x="100" y="170" width="10" height="10"/><rect x="180" y="170" width="10" height="10"/><rect x="190" y="170" width="10" height="10"/><rect x="210" y="170" width="10" height="10"/><rect x="240" y="170" width="10" height="10"/><rect x="250" y="170" width="10" height="10"/><rect x="270" y="170" width="10" height="10"/><rect x="290" y="170" width="10" height="10"/><rect x="310" y="170" width="10" height="10"/><rect x="50" y="180" width="10" height="10"/><rect x="70" y="180" width="10" height="10"/><rect x="80" y="180" width="10" height="10"/><rect x="100" y="180" width="10" height="10"/><rect x="110" y="180" width="10" height="10"/><rect x="140" y="180" width="10" height="10"/><rect x="150" y="180" width="10" height="10"/><rect x="160" y="180" width="10" height="10"/><rect x="180" y="180" width="10" height="10"/><rect x="200" y="180" width="10" height="10"/><rect x="210" y="180" width="10" height="10"/><rect x="230" y="180" width="10" height="10"/><rect x="320" y="180" width="10" height="10"/><rect x="330" y="180" width="10" height="10"/><rect x="340" y="180" width="10" height="10"/><rect x="360" y="180" width="10" height="10"/><rect x="50" y="190" width="10" height="10"/><rect x="130" y="190" width="10" height="10"/><rect x="220" y="190" width="10" height="10"/><rect x="240" y="190" width="10" height="10"/><rect x="250" y="190" width="10" height="10"/><rect x="270" y="190" width="10" height="10"/><rect x="280" y="190" width="10" height="10"/><rect x="290" y="190" width="10" height="10"/><rect x="300" y="190" width="10" height="10"/><rect x="310" y="190" width="10" height="10"/><rect x="320" y="190" width="10" height="10"/><rect x="330" y="190" width="10" height="10"/><rect x="350" y="190" width="10" height="10"/><rect x="360" y="190" width="10" height="10"/><rect x="50" y="200" width="10" height="10"/><rect x="60" y="200" width="10" height="10"/><rect x="70" y="200" width="10" height="10"/><rect x="80" y="200" width="10" height="10"/><rect x="90" y="200" width="10" height="10"/><rect x="110" y="200" width="10" height="10"/><rect x="120" y="200" width="10" height="10"/><rect x="150" y="200" width="10" height="10"/><rect x="160" y="200" width="10" height="10"/><rect x="170" y="200" width="10" height="10"/><rect x="180" y="200" width="10" height="10"/><rect x="210" y="200" width="10" height="10"/><rect x="240" y="200" width="10" height="10"/><rect x="250" y="200" width="10" height="10"/><rect x="310" y="200" width="10" height="10"/><rect x="320" y="200" width="10" height="10"/><rect x="330" y="200" width="10" height="10"/><rect x="70" y="210" width="10" height="10"/><rect x="80" y="210" width="10" height="10"/><rect x="100" y="210" width="10" height="10"/><rect x="130" y="210" width="10" height="10"/><rect x="140" y="210" width="10" height="10"/><rect x="170" y="210" width="10" height="10"/><rect x="200" y="210" width="10" height="10"/><rect x="210" y="210" width="10" height="10"/><rect x="220" y="210" width="10" height="10"/><rect x="270" y="210" width="10" height="10"/><rect x="280" y="210" width="10" height="10"/><rect x="310" y="210" width="10" height="10"/><rect x="320" y="210" width="10" height="10"/><rect x="330" y="210" width="10" height="10"/><rect x="50" y="220" width="10" height="10"/><rect x="70" y="220" width="10" height="10"/><rect x="80" y="220" width="10" height="10"/><rect x="110" y="220" width="10" height="10"/><rect x="130" y="220" width="10" height="10"/><rect x="150" y="220" width="10" height="10"/><rect x="160" y="220" width="10" height="10"/><rect x="170" y="220" width="10" height="10"/><rect x="210" y="220" width="10" height="10"/><rect x="220" y="220" width="10" height="10"/><rect x="300" y="220" width="10" height="10"/><rect x="310" y="220" width="10" height="10"/><rect x="350" y="220" width="10" height="10"/><rect x="40" y="230" width="10" height="10"/><rect x="50" y="230" width="10" height="10"/><rect x="90" y="230" width="10" height="10"/><rect x="120" y="230" width="10" height="10"/><rect x="140" y="230" width="10" height="10"/><rect x="150" y="230" width="10" height="10"/><rect x="160" y="230" width="10" height="10"/><rect x="180" y="230" width="10" height="10"/><rect x="190" y="230" width="10" height="10"/><rect x="200" y="230" width="10" height="10"/><rect x="210" y="230" width="10" height="10"/><rect x="220" y="230" width="10" height="10"/><rect x="240" y="230" width="10" height="10"/><rect x="250" y="230" width="10" height="10"/><rect x="270" y="230" width="10" height="10"/><rect x="280" y="230" width="10" height="10"/><rect x="290" y="230" width="10" height="10"/><rect x="300" y="230" width="10" height="10"/><rect x="310" y="230" width="10" height="10"/><rect x="340" y="230" width="10" height="10"/><rect x="360" y="230" width="10" height="10"/><rect x="40" y="240" width="10" height="10"/><rect x="50" y="240" width="10" height="10"/><rect x="70" y="240" width="10" height="10"/><rect x="80" y="240" width="10" height="10"/><rect x="90" y="240" width="10" height="10"/><rect x="100" y="240" width="10" height="10"/><rect x="110" y="240" width="10" height="10"/><rect x="120" y="240" width="10" height="10"/><rect x="140" y="240" width="10" height="10"/><rect x="150" y="240" width="10" height="10"/><rect x="160" y="240" width="10" height="10"/><rect x="180" y="240" width="10" height="10"/><rect x="190" y="240" width="10" height="10"/><rect x="200" y="240" width="10" height="10"/><rect x="210" y="240" width="10" height="10"/><rect x="220" y="240" width="10" height="10"/><rect x="230" y="240" width="10" height="10"/><rect x="240" y="240" width="10" height="10"/><rect x="250" y="240" width="10" height="10"/><rect x="270" y="240" width="10" height="10"/><rect x="280" y="240" width="10" height="10"/><rect x="290" y="240" width="10" height="10"/><rect x="300" y="240" width="10" height="10"/><rect x="310" y="240" width="10" height="10"/><rect x="340" y="240" width="10" height="10"/><rect x="350" y="240" width="10" height="10"/><rect x="360" y="240" width="10" height="10"/><rect x="40" y="250" width="10" height="10"/><rect x="70" y="250" width="10" height="10"/><rect x="80" y="250" width="10" height="10"/><rect x="90" y="250" width="10" height="10"/><rect x="100" y="250" width="10" height="10"/><rect x="110" y="250" width="10" height="10"/><rect x="140" y="250" width="10" height="10"/><rect x="150" y="250" width="10" height="10"/><rect x="160" y="250" width="10" height="10"/><rect x="190" y="250" width="10" height="10"/><rect x="200" y="250" width="10" height="10"/><rect x="210" y="250" width="10" height="10"/><rect x="230" y="250" width="10" height="10"/><rect x="240" y="250" width="10" height="10"/><rect x="250" y="250" width="10" height="10"/><rect x="300" y="250" width="10" height="10"/><rect x="310" y="250" width="10" height="10"/><rect x="340" y="250" width="10" height="10"/><rect x="350" y="250" width="10" height="10"/><rect x="40" y="260" width="10" height="10"/><rect x="60" y="260" width="10" height="10"/><rect x="90" y="260" width="10" height="10"/><rect x="100" y="260" width="10" height="10"/><rect x="130" y="260" width="10" height="10"/><rect x="140" y="260" width="10" height="10"/><rect x="180" y="260" width="10" height="10"/><rect x="190" y="260" width="10" height="10"/><rect x="240" y="260" width="10" height="10"/><rect x="250" y="260" width="10" height="10"/><rect x="260" y="260" width="10" height="10"/><rect x="270" y="260" width="10" height="10"/><rect x="310" y="260" width="10" height="10"/><rect x="320" y="260" width="10" height="10"/><rect x="330" y="260" width="10" height="10"/><rect x="360" y="260" width="10" height="10"/><rect x="40" y="270" width="10" height="10"/><rect x="60" y="270" width="10" height="10"/><rect x="90" y="270" width="10" height="10"/><rect x="100" y="270" width="10" height="10"/><rect x="110" y="270" width="10" height="10"/><rect x="140" y="270" width="10" height="10"/><rect x="150" y="270" width="10" height="10"/><rect x="160" y="270" width="10" height="10"/><rect x="180" y="270" width="10" height="10"/><rect x="200" y="270" width="10" height="10"/><rect x="220" y="270" width="10" height="10"/><rect x="260" y="270" width="10" height="10"/><rect x="270" y="270" width="10" height="10"/><rect x="280" y="270" width="10" height="10"/><rect x="290" y="270" width="10" height="10"/><rect x="300" y="270" width="10" height="10"/><rect x="310" y="270" width="10" height="10"/><rect x="320" y="270" width="10" height="10"/><rect x="330" y="270" width="10" height="10"/><rect x="350" y="270" width="10" height="10"/><rect x="130" y="280" width="10" height="10"/><rect x="140" y="280" width="10" height="10"/><rect x="210" y="280" width="10" height="10"/><rect x="220" y="280" width="10" height="10"/><rect x="270" y="280" width="10" height="10"/><rect x="310" y="280" width="10" height="10"/><rect x="340" y="280" width="10" height="10"/><rect x="360" y="280" width="10" height="10"/><rect x="40" y="290" width="10" height="10"/><rect x="50" y="290" width="10" height="10"/><rect x="60" y="290" width="10" height="10"/><rect x="70" y="290" width="10" height="10"/><rect x="80" y="290" width="10" height="10"/><rect x="90" y="290" width="10" height="10"/><rect x="100" y="290" width="10" height="10"/><rect x="110" y="290" width="10" height="10"/><rect x="130" y="290" width="10" height="10"/><rect x="170" y="290" width="10" height="10"/><rect x="180" y="290" width="10" height="10"/><rect x="210" y="290" width="10" height="10"/><rect x="220" y="290" width="10" height="10"/><rect x="230" y="290" width="10" height="10"/><rect x="260" y="290" width="10" height="10"/><rect x="270" y="290" width="10" height="10"/><rect x="290" y="290" width="10" height="10"/><rect x="310" y="290" width="10" height="10"/><rect x="350" y="290" width="10" height="10"/><rect x="40" y="300" width="10" height="10"/><rect x="110" y="300" width="10" height="10"/><rect x="140" y="300" width="10" height="10"/><rect x="150" y="300" width="10" height="10"/><rect x="160" y="300" width="10" height="10"/><rect x="170" y="300" width="10" height="10"/><rect x="200" y="300" width="10" height="10"/><rect x="220" y="300" width="10" height="10"/><rect x="240" y="300" width="10" height="10"/><rect x="250" y="300" width="10" height="10"/><rect x="260" y="300" width="10" height="10"/><rect x="270" y="300" width="10" height="10"/><rect x="310" y="300" width="10" height="10"/><rect x="320" y="300" width="10" height="10"/><rect x="330" y="300" width="10" height="10"/><rect x="350" y="300" width="10" height="10"/><rect x="360" y="300" width="10" height="10"/><rect x="40" y="310" width="10" height="10"/><rect x="60" y="310" width="10" height="10"/><rect x="70" y="310" width="10" height="10"/><rect x="80" y="310" width="10" height="10"/><rect x="90" y="310" width="10" height="10"/><rect x="110" y="310" width="10" height="10"/><rect x="130" y="310" width="10" height="10"/><rect x="140" y="310" width="10" height="10"/><rect x="170" y="310" width="10" height="10"/><rect x="230" y="310" width="10" height="10"/><rect x="240" y="310" width="10" height="10"/><rect x="250" y="310" width="10" height="10"/><rect x="270" y="310" width="10" height="10"/><rect x="280" y="310" width="10" height="10"/><rect x="290" y="310" width="10" height="10"/><rect x="300" y="310" width="10" height="10"/><rect x="310" y="310" width="10" height="10"/><rect x="340" y="310" width="10" height="10"/><rect x="350" y="310" width="10" height="10"/><rect x="40" y="320" width="10" height="10"/><rect x="60" y="320" width="10" height="10"/><rect x="70" y="320" width="10" height="10"/><rect x="80" y="320" width="10" height="10"/><rect x="90" y="320" width="10" height="10"/><rect x="110" y="320" width="10" height="10"/><rect x="130" y="320" width="10" height="10"/><rect x="140" y="320" width="10" height="10"/><rect x="150" y="320" width="10" height="10"/><rect x="170" y="320" width="10" height="10"/><rect x="180" y="320" width="10" height="10"/><rect x="190" y="320" width="10" height="10"/><rect x="200" y="320" width="10" height="10"/><rect x="230" y="320" width="10" height="10"/><rect x="240" y="320" width="10" height="10"/><rect x="250" y="320" width="10" height="10"/><rect x="260" y="320" width="10" height="10"/><rect x="270" y="320" width="10" height="10"/><rect x="280" y="320" width="10" height="10"/><rect x="290" y="320" width="10" height="10"/><rect x="300" y="320" width="10" height="10"/><rect x="310" y="320" width="10" height="10"/><rect x="340" y="320" width="10" height="10"/><rect x="350" y="320" width="10" height="10"/><rect x="360" y="320" width="10" height="10"/><rect x="40" y="330" width="10" height="10"/><rect x="60" y="330" width="10" height="10"/><rect x="70" y="330" width="10" height="10"/><rect x="80" y="330" width="10" height="10"/><rect x="90" y="330" width="10" height="10"/><rect x="110" y="330" width="10" height="10"/><rect x="130" y="330" width="10" height="10"/><rect x="140" y="330" width="10" height="10"/><rect x="150" y="330" width="10" height="10"/><rect x="160" y="330" width="10" height="10"/><rect x="180" y="330" width="10" height="10"/><rect x="190" y="330" width="10" height="10"/><rect x="200" y="330" width="10" height="10"/><rect x="220" y="330" width="10" height="10"/><rect x="230" y="330" width="10" height="10"/><rect x="260" y="330" width="10" height="10"/><rect x="270" y="330" width="10" height="10"/><rect x="300" y="330" width="10" height="10"/><rect x="350" y="330" width="10" height="10"/><rect x="360" y="330" width="10" height="10"/><rect x="40" y="340" width="10" height="10"/><rect x="60" y="340" width="10" height="10"/><rect x="70" y="340" width="10" height="10"/><rect x="80" y="340" width="10" height="10"/><rect x="90" y="340" width="10" height="10"/><rect x="110" y="340" width="10" height="10"/><rect x="130" y="340" width="10" height="10"/><rect x="150" y="340" width="10" height="10"/><rect x="160" y="340" width="10" height="10"/><rect x="190" y="340" width="10" height="10"/><rect x="200" y="340" width="10" height="10"/><rect x="210" y="340" width="10" height="10"/><rect x="220" y="340" width="10" height="10"/><rect x="240" y="340" width="10" height="10"/><rect x="250" y="340" width="10" height="10"/><rect x="280" y="340" width="10" height="10"/><rect x="290" y="340" width="10" height="10"/><rect x="300" y="340" width="10" height="10"/><rect x="310" y="340" width="10" height="10"/><rect x="320" y="340" width="10" height="10"/><rect x="330" y="340" width="10" height="10"/><rect x="350" y="340" width="10" height="10"/><rect x="40" y="350" width="10" height="10"/><rect x="110" y="350" width="10" height="10"/><rect x="130" y="350" width="10" height="10"/><rect x="150" y="350" width="10" height="10"/><rect x="160" y="350" width="10" height="10"/><rect x="180" y="350" width="10" height="10"/><rect x="190" y="350" width="10" height="10"/><rect x="260" y="350" width="10" height="10"/><rect x="270" y="350" width="10" height="10"/><rect x="290" y="350" width="10" height="10"/><rect x="300" y="350" width="10" height="10"/><rect x="310" y="350" width="10" height="10"/><rect x="320" y="350" width="10" height="10"/><rect x="330" y="350" width="10" height="10"/><rect x="350" y="350" width="10" height="10"/><rect x="40" y="360" width="10" height="10"/><rect x="50" y="360" width="10" height="10"/><rect x="60" y="360" width="10" height="10"/><rect x="70" y="360" width="10" height="10"/><rect x="80" y="360" width="10" height="10"/><rect x="90" y="360" width="10" height="10"/><rect x="100" y="360" width="10" height="10"/><rect x="110" y="360" width="10" height="10"/><rect x="130" y="360" width="10" height="10"/><rect x="150" y="360" width="10" height="10"/><rect x="160" y="360" width="10" height="10"/><rect x="180" y="360" width="10" height="10"/><rect x="200" y="360" width="10" height="10"/><rect x="210" y="360" width="10" height="10"/><rect x="220" y="360" width="10" height="10"/><rect x="230" y="360" width="10" height="10"/><rect x="280" y="360" width="10" height="10"/><rect x="290" y="360" width="10" height="10"/><rect x="310" y="360" width="10" height="10"/><rect x="340" y="360" width="10" height="10"/>
  </g>
</svg>